<svg xmlns="http://www.w3.org/2000/svg" viewBox="0 0 159.81 62.9"><defs><style>.cls-1{fill:#d60002;}.cls-2{fill:#424242;}.cls-3{fill:#fff;}.cls-4{fill:#414142;}</style></defs><title>Logo</title><g id="Слой_2" data-name="Слой 2"><g id="Слой_1-2" data-name="Слой 1"><path class="cls-1" d="M11.83,28.06H1a1,1,0,0,1-1-1V16.23a1,1,0,0,1,1-1H11.83a1,1,0,0,1,1,1V27.06a1,1,0,0,1-1,1"/><path class="cls-1" d="M11.83,12.83H1a1,1,0,0,1-1-1V1A1,1,0,0,1,1,0H11.83a1,1,0,0,1,1,1V11.83a1,1,0,0,1-1,1"/><path class="cls-1" d="M11.83,43.29H1a1,1,0,0,1-1-1V31.46a1,1,0,0,1,1-1H11.83a1,1,0,0,1,1,1V42.3a1,1,0,0,1-1,1"/><path class="cls-1" d="M26.74,28.06H15.91a1,1,0,0,1-1-1V16.23a1,1,0,0,1,1-1H26.74a1,1,0,0,1,1,1V27.06a1,1,0,0,1-1,1"/><path class="cls-1" d="M26.74,43.29H15.91a1,1,0,0,1-1-1V31.46a1,1,0,0,1,1-1H26.74a1,1,0,0,1,1,1V42.3a1,1,0,0,1-1,1"/><path class="cls-2" d="M132.58,12.82a4.34,4.34,0,1,1-4.34-4.34,4.34,4.34,0,0,1,4.34,4.34"/><polygon class="cls-3" points="128.88 12.24 128.88 9.83 127.62 9.83 127.62 12.24 125.22 12.24 125.22 13.4 127.62 13.4 127.62 15.8 128.88 15.8 128.88 13.4 131.28 13.4 131.28 12.24 128.88 12.24"/><path class="cls-2" d="M98,36.2a2,2,0,0,0,.75,1.6,3,3,0,0,0,1.93.61,7.1,7.1,0,0,0,1.86-.29,1,1,0,0,1,1.3.78l.66,3a1,1,0,0,1-.62,1.18,11.87,11.87,0,0,1-4.28.88,7.85,7.85,0,0,1-5.67-2,7.11,7.11,0,0,1-2.14-5.38v-27a1,1,0,0,1,1-1H97a1,1,0,0,1,1,1Z"/><path class="cls-4" d="M55.93,22.7a12.24,12.24,0,0,1,3.45,8.9A12.21,12.21,0,0,1,56,40.47,10.91,10.91,0,0,1,47.88,44a11.94,11.94,0,0,1-7.75-2.54v.8a1,1,0,0,1-1,1H35a1,1,0,0,1-1-1V9.51a1,1,0,0,1,1-1H39.1a1,1,0,0,1,1,1V21.74a11.69,11.69,0,0,1,7.75-2.58,10.89,10.89,0,0,1,8.05,3.54m-4.41,14a7,7,0,0,0,1.85-5.09,7.06,7.06,0,0,0-1.85-5.12,6.27,6.27,0,0,0-4.72-1.93,6.46,6.46,0,0,0-4.65,2,6.78,6.78,0,0,0-2,5.07,6.7,6.7,0,0,0,2,5,6.5,6.5,0,0,0,4.65,1.95,6.31,6.31,0,0,0,4.72-1.9"/><path class="cls-4" d="M86,43.29H81.9a1,1,0,0,1-1-1v-.8A12,12,0,0,1,73.12,44,10.91,10.91,0,0,1,65,40.47a12.21,12.21,0,0,1-3.43-8.87,12.24,12.24,0,0,1,3.45-8.9,10.89,10.89,0,0,1,8.05-3.54,11.69,11.69,0,0,1,7.75,2.58v-.85a1,1,0,0,1,1-1H86a1,1,0,0,1,1,1V42.26a1,1,0,0,1-1,1m-7.19-6.64a6.7,6.7,0,0,0,2-5,6.78,6.78,0,0,0-2-5.07,6.46,6.46,0,0,0-4.65-2,6.27,6.27,0,0,0-4.72,1.92,7.07,7.07,0,0,0-1.85,5.12,7,7,0,0,0,1.85,5.09,6.31,6.31,0,0,0,4.72,1.9,6.5,6.5,0,0,0,4.65-1.95"/><path class="cls-4" d="M122.11,41.4a1,1,0,0,1-.51,1.26A12.35,12.35,0,0,1,116.3,44a9.41,9.41,0,0,1-6.76-2.32q-2.44-2.32-2.44-7V24.93h-4a1,1,0,0,1-1-1v-3a1,1,0,0,1,1-1h4V13.8a1,1,0,0,1,1-1h4.14a1,1,0,0,1,1,1v6.06h6.62a1,1,0,0,1,1,1v3a1,1,0,0,1-1,1H113.3v9.25q0,4,3.43,4a7.5,7.5,0,0,0,2.9-.65,1,1,0,0,1,1.37.61Z"/><path class="cls-4" d="M125.15,42.26V20.89a1,1,0,0,1,1-1h4.14a1,1,0,0,1,1,1V42.26a1,1,0,0,1-1,1h-4.14a1,1,0,0,1-1-1"/><path class="cls-4" d="M158.78,43.29h-4.14a1,1,0,0,1-1-1v-.8A12,12,0,0,1,145.87,44a10.91,10.91,0,0,1-8.08-3.52,12.21,12.21,0,0,1-3.43-8.87,12.24,12.24,0,0,1,3.45-8.9,10.89,10.89,0,0,1,8.05-3.54,11.69,11.69,0,0,1,7.75,2.58v-.85a1,1,0,0,1,1-1h4.14a1,1,0,0,1,1,1V42.26a1,1,0,0,1-1,1m-7.19-6.64a6.7,6.7,0,0,0,2-5,6.78,6.78,0,0,0-2-5.07,6.46,6.46,0,0,0-4.65-2,6.27,6.27,0,0,0-4.72,1.92,7.07,7.07,0,0,0-1.86,5.12,7,7,0,0,0,1.86,5.09,6.31,6.31,0,0,0,4.72,1.9,6.5,6.5,0,0,0,4.65-1.95"/><path class="cls-2" d="M33.45,52.41a1.74,1.74,0,0,1,3.05-1.15l-.32.34a1.37,1.37,0,0,0-1-.49,1.31,1.31,0,0,0,0,2.61,1.36,1.36,0,0,0,1-.5l.33.3a1.73,1.73,0,0,1-3.08-1.1Z"/><path class="cls-2" d="M37.36,50.74h.5v1.93l1.83-1.93h.61l-1.4,1.45,1.44,1.9h-.59l-1.19-1.53-.71.72v.81h-.5Z"/><path class="cls-2" d="M40.46,54.08l.06-.43a1.12,1.12,0,0,0,.24,0c.4,0,.74-.17.74-2.68v-.28h2.37v3.34h-.5v-2.9H42v.08c0,2.61-.47,2.88-1.11,2.88A2.06,2.06,0,0,1,40.46,54.08Z"/><path class="cls-2" d="M44.72,53.1c0-.72.58-1.09,1.43-1.09a3.51,3.51,0,0,1,1,.14V52c0-.6-.36-.91-1-.91a2.33,2.33,0,0,0-1,.24L45,51a2.74,2.74,0,0,1,1.22-.28,1.48,1.48,0,0,1,1.08.37,1.32,1.32,0,0,1,.35,1v2h-.49v-.5a1.47,1.47,0,0,1-1.2.57A1.12,1.12,0,0,1,44.72,53.1Zm2.46-.25v-.31a3.44,3.44,0,0,0-1-.14c-.62,0-1,.27-1,.69s.39.67.84.67A1,1,0,0,0,47.18,52.85Z"/><path class="cls-2" d="M48.23,53.64h.36A4.76,4.76,0,0,0,49,51.32v-.58h2.38v2.9h.5l-.08,1.27h-.41v-.83h-2.7l-.09.83h-.41Zm2.69,0V51.18h-1.4v.47a4.53,4.53,0,0,1-.39,2Z"/><path class="cls-2" d="M54.55,50.74h1.62c.67,0,1.09.33,1.09.83a.8.8,0,0,1-.56.77.86.86,0,0,1,.74.83c0,.56-.48.91-1.22.91H54.55Zm1.53,1.44c.4,0,.68-.19.68-.54s-.23-.47-.67-.47h-1v1Zm.08,1.48c.48,0,.77-.21.77-.56s-.29-.52-.83-.52h-1v1.08Z"/><path class="cls-2" d="M58.34,50.74h.5v.67a1.5,1.5,0,0,1,1.28-.74,1.75,1.75,0,0,1,0,3.49,1.51,1.51,0,0,1-1.28-.71v1.68h-.5Zm2.87,1.67A1.2,1.2,0,0,0,60,51.11a1.3,1.3,0,0,0,0,2.59A1.18,1.18,0,0,0,61.21,52.4Z"/><path class="cls-2" d="M62.43,52.41A1.65,1.65,0,0,1,64,50.66a1.59,1.59,0,0,1,1.56,1.77s0,.1,0,.17H62.94a1.17,1.17,0,0,0,1.18,1.11,1.38,1.38,0,0,0,1.05-.47l.31.28a1.73,1.73,0,0,1-1.38.63A1.66,1.66,0,0,1,62.43,52.41Zm2.66-.2A1.1,1.1,0,0,0,64,51.08a1.16,1.16,0,0,0-1.09,1.13Z"/><path class="cls-2" d="M66.47,50.74h.47l1.25,1.76,1.25-1.76h.48v3.34h-.5V51.53l-1.24,1.7L67,51.53v2.55h-.48Z"/><path class="cls-2" d="M70.82,52.41a1.65,1.65,0,0,1,1.6-1.75A1.59,1.59,0,0,1,74,52.44s0,.1,0,.17H71.33a1.17,1.17,0,0,0,1.18,1.11,1.38,1.38,0,0,0,1.05-.47l.31.28a1.73,1.73,0,0,1-1.38.63A1.66,1.66,0,0,1,70.82,52.41Zm2.66-.2a1.1,1.1,0,0,0-1.07-1.13,1.16,1.16,0,0,0-1.09,1.13Z"/><path class="cls-2" d="M74.86,50.74h.5v1.44h1.93V50.74h.5v3.34h-.5V52.62H75.36v1.46h-.5Z"/><path class="cls-2" d="M78.9,50.74h.5v1.44h1.93V50.74h.5v3.34h-.5V52.62H79.4v1.46h-.5Z"/><path class="cls-2" d="M82.73,52.41a1.74,1.74,0,1,1,1.73,1.75A1.73,1.73,0,0,1,82.73,52.41Zm3,0a1.27,1.27,0,0,0-1.24-1.31,1.24,1.24,0,0,0-1.22,1.31,1.26,1.26,0,0,0,1.24,1.3A1.24,1.24,0,0,0,85.7,52.41Z"/><path class="cls-2" d="M87.11,50.74h2.27v.44H87.61v2.9h-.5Z"/><path class="cls-2" d="M89.71,52.41a1.74,1.74,0,1,1,1.73,1.75A1.73,1.73,0,0,1,89.71,52.41Zm3,0a1.27,1.27,0,0,0-1.24-1.31,1.24,1.24,0,0,0-1.22,1.31,1.26,1.26,0,0,0,1.24,1.3A1.24,1.24,0,0,0,92.68,52.41Z"/><path class="cls-2" d="M97,52.38l-1.26-1.64h.57l1,1.29,1-1.29h.56l-1.27,1.63,1.32,1.71h-.58l-1-1.37-1,1.37h-.56Z"/><path class="cls-2" d="M99.75,50.74h.5v.67a1.5,1.5,0,0,1,1.28-.74,1.75,1.75,0,0,1,0,3.49,1.51,1.51,0,0,1-1.28-.71v1.68h-.5Zm2.87,1.67a1.2,1.2,0,0,0-1.18-1.29,1.3,1.3,0,0,0,0,2.59A1.18,1.18,0,0,0,102.62,52.4Z"/><path class="cls-2" d="M103.79,53.1c0-.72.58-1.09,1.43-1.09a3.51,3.51,0,0,1,1,.14V52c0-.6-.36-.91-1-.91a2.33,2.33,0,0,0-1,.24l-.15-.41a2.74,2.74,0,0,1,1.22-.28,1.48,1.48,0,0,1,1.08.37,1.32,1.32,0,0,1,.35,1v2h-.49v-.5a1.47,1.47,0,0,1-1.2.57A1.12,1.12,0,0,1,103.79,53.1Zm2.46-.25v-.31a3.44,3.44,0,0,0-1-.14c-.62,0-1,.27-1,.69s.39.67.84.67A1,1,0,0,0,106.25,52.85Z"/><path class="cls-2" d="M107.79,50.74h.5v1.44h1.93V50.74h.5v3.34h-.5V52.62h-1.93v1.46h-.5Z"/><path class="cls-2" d="M111.62,52.41a1.65,1.65,0,0,1,1.6-1.75,1.59,1.59,0,0,1,1.56,1.77s0,.1,0,.17h-2.65a1.17,1.17,0,0,0,1.18,1.11,1.38,1.38,0,0,0,1.05-.47l.31.28a1.73,1.73,0,0,1-1.38.63A1.66,1.66,0,0,1,111.62,52.41Zm2.66-.2a1.1,1.1,0,0,0-1.07-1.13,1.16,1.16,0,0,0-1.09,1.13Z"/><path class="cls-2" d="M115.66,50.74h.5v1.44h1.93V50.74h.5v3.34h-.5V52.62h-1.93v1.46h-.5Z"/><path class="cls-2" d="M119.7,50.74h.5v2.65l2-2.65h.49v3.34h-.5V51.43l-2,2.65h-.48Z"/><path class="cls-2" d="M124.5,52.79a1,1,0,0,1-.89-1c0-.61.47-1,1.26-1h1.57v3.34h-.5V52.86H125l-.93,1.22h-.61Zm1.44-.34V51.18h-1c-.5,0-.79.24-.79.62s.34.65.8.65Z"/><path class="cls-2" d="M1.2,58.94H0V58.5H2.9v.44H1.7v2.91H1.2Z"/><path class="cls-2" d="M3.25,60.86c0-.72.58-1.09,1.43-1.09a3.5,3.5,0,0,1,1,.14v-.1c0-.6-.36-.91-1-.91a2.33,2.33,0,0,0-1,.24l-.15-.41a2.75,2.75,0,0,1,1.22-.28,1.48,1.48,0,0,1,1.08.37,1.32,1.32,0,0,1,.35,1v2H5.7v-.5a1.46,1.46,0,0,1-1.2.57A1.12,1.12,0,0,1,3.25,60.86Zm2.46-.25V60.3a3.44,3.44,0,0,0-1-.14c-.62,0-1,.27-1,.69s.39.67.84.67A1,1,0,0,0,5.71,60.62Z"/><path class="cls-2" d="M7.25,58.5h.47L9,60.26l1.25-1.76h.48v3.34h-.5V59.3L9,61,7.73,59.3v2.55H7.25Z"/><path class="cls-2" d="M11.47,60.18a1.74,1.74,0,1,1,1.73,1.75A1.73,1.73,0,0,1,11.47,60.18Zm3,0a1.27,1.27,0,0,0-1.24-1.31A1.24,1.24,0,0,0,12,60.18a1.25,1.25,0,0,0,1.24,1.3A1.24,1.24,0,0,0,14.45,60.18Z"/><path class="cls-2" d="M16.62,59.93l-1.3-1.43h.6l1.7,1.94V58.5h.5v1.94l1.7-1.94h.6l-1.3,1.43,1.37,1.92h-.58L18.8,60.29l-.68.74v.82h-.5V61l-.68-.74-1.11,1.56h-.58Z"/><path class="cls-2" d="M20.78,60.18a1.65,1.65,0,0,1,1.6-1.75,1.59,1.59,0,0,1,1.56,1.77s0,.1,0,.17H21.28a1.17,1.17,0,0,0,1.18,1.11A1.38,1.38,0,0,0,23.51,61l.31.28a1.73,1.73,0,0,1-1.38.63A1.66,1.66,0,0,1,20.78,60.18Zm2.66-.2a1.1,1.1,0,0,0-1.07-1.13A1.15,1.15,0,0,0,21.28,60Z"/><path class="cls-2" d="M24.81,58.5h.5v1.44h1.93V58.5h.5v3.34h-.5V60.38H25.31v1.46h-.5Z"/><path class="cls-2" d="M28.85,58.5h.5v1.44h1.93V58.5h.5v3.34h-.5V60.38H29.35v1.46h-.5Z"/><path class="cls-2" d="M32.68,60.18a1.74,1.74,0,1,1,1.73,1.75A1.73,1.73,0,0,1,32.68,60.18Zm3,0a1.27,1.27,0,0,0-1.24-1.31,1.24,1.24,0,0,0-1.22,1.31,1.25,1.25,0,0,0,1.24,1.3A1.24,1.24,0,0,0,35.66,60.18Z"/><path class="cls-2" d="M36.93,59.64h1.8v.52h-1.8Z"/><path class="cls-2" d="M39.14,61.84l.06-.43a1.1,1.1,0,0,0,.24,0c.4,0,.74-.17.74-2.69V58.5h2.37v3.34H42V58.94h-1.4V59c0,2.61-.47,2.88-1.11,2.88A2.06,2.06,0,0,1,39.14,61.84Z"/><path class="cls-2" d="M43.45,60.18a1.74,1.74,0,1,1,1.73,1.75A1.73,1.73,0,0,1,43.45,60.18Zm3,0a1.27,1.27,0,0,0-1.24-1.31A1.24,1.24,0,0,0,44,60.18a1.25,1.25,0,0,0,1.24,1.3A1.24,1.24,0,0,0,46.43,60.18Z"/><path class="cls-2" d="M47.84,58.5h2.27v.44H48.34v2.91h-.5Z"/><path class="cls-2" d="M50.84,58.5h.5v2.65l2-2.65h.49v3.34h-.5V59.2l-2,2.65h-.48Z"/><path class="cls-2" d="M54.71,60.18A1.74,1.74,0,0,1,57.76,59l-.32.34a1.37,1.37,0,0,0-1-.49,1.31,1.31,0,0,0,0,2.61,1.36,1.36,0,0,0,1-.5l.33.3a1.73,1.73,0,0,1-3.08-1.1Z"/><path class="cls-2" d="M59.42,58.94h-1.2V58.5h2.9v.44h-1.2v2.91h-.5Z"/><path class="cls-2" d="M61.85,58.5h.5v2.65l2-2.65h.49v3.34h-.5V59.2l-2,2.65h-.48Z"/><path class="cls-2" d="M68.05,60.47a2.63,2.63,0,0,1-1.12.3,1,1,0,0,1-1.11-1V58.5h.5v1.2a.6.6,0,0,0,.67.64A2,2,0,0,0,68.05,60V58.5h.5v3.34h-.5Z"/><path class="cls-2" d="M69.46,60.18a1.65,1.65,0,0,1,1.6-1.75,1.59,1.59,0,0,1,1.56,1.77s0,.1,0,.17H70a1.17,1.17,0,0,0,1.18,1.11A1.38,1.38,0,0,0,72.19,61l.31.28a1.73,1.73,0,0,1-1.38.63A1.66,1.66,0,0,1,69.46,60.18Zm2.66-.2A1.1,1.1,0,0,0,71,58.85,1.15,1.15,0,0,0,70,60Z"/><path class="cls-2" d="M73.29,60.18A1.74,1.74,0,0,1,76.34,59l-.32.34a1.37,1.37,0,0,0-1-.49,1.31,1.31,0,0,0,0,2.61,1.36,1.36,0,0,0,1-.5l.33.3a1.73,1.73,0,0,1-3.08-1.1Z"/><path class="cls-2" d="M77.19,58.5h.5v1.93l1.83-1.93h.61l-1.4,1.45,1.44,1.9h-.59l-1.19-1.53-.71.72v.81h-.5Z"/><path class="cls-2" d="M80.86,58.5h.5v2.65l2-2.65h.48v3.34h-.5V59.2l-2,2.65h-.48Z"/><path class="cls-2" d="M84.94,58.5h.5v2.65l2-2.65h.49v3.34h-.5V59.2l-2,2.65h-.48Zm.56-1.27.34-.07a.58.58,0,0,0,1.14,0l.34.07a.92.92,0,0,1-1.82,0Z"/><path class="cls-2" d="M91.77,58.94h-1.2V58.5h2.9v.44h-1.2v2.91h-.5Z"/><path class="cls-2" d="M93.86,60.18a1.65,1.65,0,0,1,1.6-1.75A1.59,1.59,0,0,1,97,60.2s0,.1,0,.17H94.36a1.17,1.17,0,0,0,1.18,1.11A1.38,1.38,0,0,0,96.6,61l.31.28a1.73,1.73,0,0,1-1.38.63A1.66,1.66,0,0,1,93.86,60.18Zm2.66-.2a1.1,1.1,0,0,0-1.07-1.13A1.15,1.15,0,0,0,94.36,60Z"/><path class="cls-2" d="M97.9,58.5h.5v.67a1.5,1.5,0,0,1,1.28-.74,1.75,1.75,0,0,1,0,3.49,1.51,1.51,0,0,1-1.28-.71v1.68h-.5Zm2.87,1.67a1.2,1.2,0,0,0-1.18-1.29,1.3,1.3,0,0,0,0,2.59A1.18,1.18,0,0,0,100.76,60.17Z"/><path class="cls-2" d="M102.19,58.5h.47l1.25,1.76,1.25-1.76h.48v3.34h-.5V59.3L103.9,61l-1.22-1.7v2.55h-.49Z"/><path class="cls-2" d="M106.75,58.5h.5v2.65l2-2.65h.48v3.34h-.5V59.2l-2,2.65h-.48Z"/><path class="cls-2" d="M110.84,58.5h.5v1.44h1.93V58.5h.5v3.34h-.5V60.38h-1.93v1.46h-.5Z"/><path class="cls-2" d="M114.62,60.86c0-.72.58-1.09,1.43-1.09a3.5,3.5,0,0,1,1,.14v-.1c0-.6-.36-.91-1-.91a2.33,2.33,0,0,0-1,.24l-.15-.41a2.74,2.74,0,0,1,1.22-.28,1.48,1.48,0,0,1,1.08.37,1.32,1.32,0,0,1,.35,1v2h-.49v-.5a1.47,1.47,0,0,1-1.2.57A1.12,1.12,0,0,1,114.62,60.86Zm2.46-.25V60.3a3.44,3.44,0,0,0-1-.14c-.62,0-1,.27-1,.69s.39.67.84.67A1,1,0,0,0,117.08,60.62Z"/><path class="cls-2" d="M118.06,61.84l.06-.43a1.11,1.11,0,0,0,.24,0c.4,0,.74-.17.74-2.69V58.5h2.37v3.34H121V58.94h-1.4V59c0,2.61-.47,2.88-1.11,2.88A2.06,2.06,0,0,1,118.06,61.84Z"/><path class="cls-2" d="M123.93,61.79l.1-.41a1.26,1.26,0,0,0,.4.06c.35,0,.94-.21.94-3.3v-.82h2.93v4.53h-.51V57.78h-1.93v.49c0,3.18-.65,3.62-1.35,3.62A2,2,0,0,1,123.93,61.79Z"/><path class="cls-2" d="M129.3,62.73l.17-.39a1,1,0,0,0,.52.12c.3,0,.48-.16.69-.63l-1.52-3.33h.55l1.22,2.79L132,58.5h.53L131.13,62c-.29.69-.61.94-1.11.94A1.52,1.52,0,0,1,129.3,62.73Z"/><path class="cls-2" d="M132.71,61.4h.36a4.76,4.76,0,0,0,.45-2.32V58.5h2.38V61.4h.5l-.08,1.27h-.41v-.83h-2.7l-.09.83h-.41Zm2.69,0V58.94H134v.47a4.53,4.53,0,0,1-.39,2Z"/><path class="cls-2" d="M136.88,60.18a1.74,1.74,0,1,1,1.73,1.75A1.73,1.73,0,0,1,136.88,60.18Zm3,0a1.27,1.27,0,0,0-1.24-1.31,1.24,1.24,0,0,0-1.22,1.31,1.25,1.25,0,0,0,1.24,1.3A1.24,1.24,0,0,0,139.85,60.18Z"/><path class="cls-2" d="M141.26,58.5h.5v1.44h1.93V58.5h.5v3.34h-.5V60.38h-1.93v1.46h-.5Z"/><path class="cls-2" d="M145.1,60.18A1.74,1.74,0,0,1,148.15,59l-.32.34a1.37,1.37,0,0,0-1-.49,1.31,1.31,0,0,0,0,2.61,1.36,1.36,0,0,0,1-.5l.33.3a1.73,1.73,0,0,1-3.08-1.1Z"/><path class="cls-2" d="M149,58.5h.5v1.93l1.83-1.93h.61l-1.4,1.45,1.44,1.9h-.59l-1.19-1.53-.71.72v.81H149Z"/><path class="cls-2" d="M152.66,58.5h.5v2.65l2-2.65h.49v3.34h-.5V59.2l-2,2.65h-.48Z"/><path class="cls-2" d="M156.75,58.5h.5v2.65l2-2.65h.48v3.34h-.5V59.2l-2,2.65h-.48Zm.56-1.27.34-.07a.58.58,0,0,0,1.14,0l.34.07a.92.92,0,0,1-1.82,0Z"/></g></g></svg>